<svg id="visual" viewBox="0 0 1920 1080" width="1920" height="1080" xmlns="http://www.w3.org/2000/svg" xmlns:xlink="http://www.w3.org/1999/xlink" version="1.1"><path d="M0 644L45.7 647.8C91.3 651.7 182.7 659.3 274.2 686C365.7 712.7 457.3 758.3 548.8 780C640.3 801.7 731.7 799.3 823 798.5C914.3 797.7 1005.7 798.3 1097 798.7C1188.3 799 1279.7 799 1371.2 774C1462.7 749 1554.3 699 1645.8 688.3C1737.3 677.7 1828.7 706.3 1874.3 720.7L1920 735L1920 1081L1874.3 1081C1828.7 1081 1737.3 1081 1645.8 1081C1554.3 1081 1462.7 1081 1371.2 1081C1279.7 1081 1188.3 1081 1097 1081C1005.7 1081 914.3 1081 823 1081C731.7 1081 640.3 1081 548.8 1081C457.3 1081 365.7 1081 274.2 1081C182.7 1081 91.3 1081 45.7 1081L0 1081Z" fill="#e49c66"></path><path d="M0 857L45.7 835C91.3 813 182.7 769 274.2 755.2C365.7 741.3 457.3 757.7 548.8 757C640.3 756.3 731.7 738.7 823 745.5C914.3 752.3 1005.7 783.7 1097 785.3C1188.3 787 1279.7 759 1371.2 747.3C1462.7 735.7 1554.3 740.3 1645.8 740C1737.3 739.7 1828.7 734.3 1874.3 731.7L1920 729L1920 1081L1874.3 1081C1828.7 1081 1737.3 1081 1645.8 1081C1554.3 1081 1462.7 1081 1371.2 1081C1279.7 1081 1188.3 1081 1097 1081C1005.7 1081 914.3 1081 823 1081C731.7 1081 640.3 1081 548.8 1081C457.3 1081 365.7 1081 274.2 1081C182.7 1081 91.3 1081 45.7 1081L0 1081Z" fill="#cc6f68"></path><path d="M0 871L45.7 875.7C91.3 880.3 182.7 889.7 274.2 895.7C365.7 901.7 457.3 904.3 548.8 893.3C640.3 882.3 731.7 857.7 823 838.5C914.3 819.3 1005.7 805.7 1097 816.7C1188.3 827.7 1279.7 863.3 1371.2 867.5C1462.7 871.7 1554.3 844.3 1645.8 844.3C1737.3 844.3 1828.7 871.7 1874.3 885.3L1920 899L1920 1081L1874.3 1081C1828.7 1081 1737.3 1081 1645.8 1081C1554.3 1081 1462.7 1081 1371.2 1081C1279.7 1081 1188.3 1081 1097 1081C1005.7 1081 914.3 1081 823 1081C731.7 1081 640.3 1081 548.8 1081C457.3 1081 365.7 1081 274.2 1081C182.7 1081 91.3 1081 45.7 1081L0 1081Z" fill="#a14e6d"></path><path d="M0 949L45.7 945C91.3 941 182.7 933 274.2 932.8C365.7 932.7 457.3 940.3 548.8 937C640.3 933.7 731.7 919.3 823 920.7C914.3 922 1005.7 939 1097 940.3C1188.3 941.7 1279.7 927.3 1371.2 924.8C1462.7 922.3 1554.3 931.7 1645.8 941.3C1737.3 951 1828.7 961 1874.3 966L1920 971L1920 1081L1874.3 1081C1828.7 1081 1737.3 1081 1645.8 1081C1554.3 1081 1462.7 1081 1371.2 1081C1279.7 1081 1188.3 1081 1097 1081C1005.7 1081 914.3 1081 823 1081C731.7 1081 640.3 1081 548.8 1081C457.3 1081 365.7 1081 274.2 1081C182.7 1081 91.3 1081 45.7 1081L0 1081Z" fill="#673969"></path><path d="M0 980L45.7 983C91.3 986 182.7 992 274.2 998C365.7 1004 457.3 1010 548.8 1012.5C640.3 1015 731.7 1014 823 1009.2C914.3 1004.3 1005.7 995.7 1097 998.7C1188.3 1001.7 1279.7 1016.3 1371.2 1017.8C1462.7 1019.3 1554.3 1007.7 1645.8 997.7C1737.3 987.7 1828.7 979.3 1874.3 975.2L1920 971L1920 1081L1874.3 1081C1828.7 1081 1737.3 1081 1645.8 1081C1554.3 1081 1462.7 1081 1371.2 1081C1279.7 1081 1188.3 1081 1097 1081C1005.7 1081 914.3 1081 823 1081C731.7 1081 640.3 1081 548.8 1081C457.3 1081 365.7 1081 274.2 1081C182.7 1081 91.3 1081 45.7 1081L0 1081Z" fill="#242956"></path></svg>